<?xml version="1.0" standalone="no"?>
<!DOCTYPE svg PUBLIC "-//W3C//DTD SVG 20010904//EN"
 "http://www.w3.org/TR/2001/REC-SVG-20010904/DTD/svg10.dtd">
<svg version="1.0" xmlns="http://www.w3.org/2000/svg"
 width="427.000000pt" height="340.000000pt" viewBox="0 0 427.000000 340.000000"
 preserveAspectRatio="xMidYMid meet">

<g transform="translate(0.000000,340.000000) scale(0.100000,-0.100000)"
fill="#9E8E78" stroke="none">
<path d="M1336 3367 c-19 -14 -66 -178 -66 -232 0 -18 -9 -95 -20 -172 -30
-214 -48 -358 -60 -478 -17 -173 -38 -363 -49 -445 -5 -41 -12 -124 -16 -185
-4 -60 -13 -141 -21 -178 -8 -38 -14 -96 -14 -130 0 -78 -25 -234 -40 -253
-11 -12 -16 -11 -41 3 -41 24 -65 5 -141 -107 -30 -45 -38 -14 -45 167 l-6
171 -29 31 c-16 17 -36 31 -44 31 -24 0 -74 -38 -119 -89 -22 -25 -87 -94
-145 -153 l-106 -108 -178 0 -177 0 3 -32 3 -33 186 0 186 0 44 36 c45 37 196
189 242 244 21 25 29 28 44 19 16 -10 18 -28 18 -187 0 -162 2 -177 21 -204
32 -43 65 -42 117 6 50 46 82 53 91 19 3 -13 6 -68 7 -123 2 -136 8 -159 40
-163 14 -2 31 4 38 12 17 20 47 176 55 286 4 47 13 119 21 160 7 41 17 122 20
180 4 58 11 123 16 145 5 22 16 117 25 210 22 242 41 426 53 530 25 218 51
444 57 497 6 62 15 76 34 53 13 -16 33 -511 70 -1745 6 -184 15 -409 20 -500
6 -91 16 -255 21 -365 11 -202 21 -249 55 -262 9 -3 22 1 29 8 17 17 40 184
56 394 6 88 13 163 15 166 2 3 10 91 18 195 9 105 20 214 26 243 5 30 10 75
10 100 0 26 6 56 14 66 13 18 15 18 41 1 15 -10 44 -18 64 -18 29 0 42 7 67
36 30 34 44 61 119 218 20 43 41 80 46 83 25 16 56 -27 137 -192 94 -192 109
-209 180 -207 48 1 186 65 250 117 73 58 83 60 149 31 68 -30 266 -74 336 -74
45 0 53 -4 136 -75 100 -85 153 -144 212 -239 23 -36 46 -66 53 -66 15 0 116
126 116 144 0 14 -34 4 -76 -20 -25 -15 -49 -23 -53 -18 -4 5 -34 43 -67 84
-65 83 -192 212 -300 307 -125 109 -174 205 -174 344 0 142 57 249 162 303 47
24 68 28 127 28 136 -2 197 -35 287 -160 32 -42 61 -81 65 -86 5 -5 36 17 72
51 81 75 143 106 225 111 109 7 191 -39 266 -151 48 -73 113 -134 127 -120 17
17 -16 130 -56 189 -71 109 -176 168 -295 168 -91 0 -134 -18 -239 -98 -41
-31 -78 -56 -82 -56 -4 0 -26 27 -49 59 -50 71 -123 134 -185 162 -67 30 -210
37 -270 15 -104 -40 -188 -140 -220 -261 -40 -157 4 -353 107 -470 36 -41 47
-65 31 -65 -47 1 -151 28 -211 55 -105 49 -134 47 -212 -15 -86 -69 -159 -109
-211 -116 -52 -7 -67 5 -97 81 -49 122 -105 227 -148 274 -45 50 -49 52 -93
49 l-46 -3 -78 -155 c-43 -85 -83 -158 -90 -162 -32 -20 -66 61 -67 163 0 25
-5 50 -12 57 -16 16 -53 15 -66 -1 -27 -32 -63 -279 -83 -562 -18 -258 -29
-303 -58 -239 -16 35 -30 287 -31 539 0 110 -7 326 -15 480 -8 154 -17 449
-20 655 -5 345 -28 881 -41 957 -2 18 -13 37 -24 43 -23 13 -23 13 -44 -3z"/>
<path d="M3761 1765 c-47 -43 -71 -105 -71 -185 0 -157 129 -172 197 -23 34
73 30 178 -7 218 -34 36 -71 33 -119 -10z"/>
<path d="M3468 1622 c-37 -22 -60 -73 -65 -146 -4 -52 -2 -66 19 -95 64 -94
177 -39 193 94 16 123 -62 201 -147 147z"/>
<path d="M4024 1621 c-56 -34 -113 -137 -114 -204 0 -50 39 -90 79 -80 55 13
74 25 125 76 62 63 90 116 81 157 -14 63 -106 90 -171 51z"/>
<path d="M3652 1315 c-83 -23 -194 -79 -227 -114 -24 -26 -30 -41 -30 -76 0
-57 31 -90 105 -112 81 -23 108 -39 175 -103 50 -47 70 -59 113 -69 67 -14 85
-5 107 54 38 98 -1 339 -64 400 -35 33 -105 41 -179 20z"/>
<path d="M4110 1308 c-45 -13 -96 -52 -121 -92 -25 -41 -26 -117 -1 -139 25
-23 94 -22 141 3 44 22 106 90 115 126 9 35 -18 92 -49 104 -31 12 -38 12 -85
-2z"/>
</g>
</svg>
